<svg width="109" height="33" viewBox="0 0 109 33" fill="none" xmlns="http://www.w3.org/2000/svg">
<path d="M0.28 10.952C0.28 10.4613 0.290667 10.0987 0.312 9.864C0.354667 9.608 0.450667 9.32 0.6 9C0.898667 8.44533 1.73067 8.168 3.096 8.168C4.12 8.168 4.84533 8.34933 5.272 8.712C5.63467 9.01067 5.82667 9.46933 5.848 10.088C5.86933 10.3013 5.88 10.6107 5.88 11.016V22.216C5.88 22.7067 5.85867 23.08 5.816 23.336C5.79467 23.5707 5.69867 23.848 5.528 24.168C5.25067 24.7227 4.42933 25 3.064 25C1.72 25 0.898667 24.712 0.6 24.136C0.450667 23.816 0.354667 23.5387 0.312 23.304C0.290667 23.0693 0.28 22.696 0.28 22.184V10.952ZM5.528 5.032C5.37867 5.33067 5.10133 5.544 4.696 5.672C4.29067 5.8 3.74667 5.864 3.064 5.864C2.40267 5.864 1.86933 5.8 1.464 5.672C1.05867 5.544 0.770667 5.32 0.6 5C0.450667 4.68 0.354667 4.40267 0.312 4.168C0.290667 3.912 0.28 3.53867 0.28 3.048C0.28 2.55733 0.290667 2.19467 0.312 1.96C0.354667 1.704 0.450667 1.42666 0.6 1.128C0.898667 0.551998 1.73067 0.263998 3.096 0.263998C4.44 0.263998 5.25067 0.551998 5.528 1.128C5.69867 1.448 5.79467 1.736 5.816 1.992C5.85867 2.22667 5.88 2.58933 5.88 3.08C5.88 3.57066 5.85867 3.944 5.816 4.2C5.79467 4.43467 5.69867 4.712 5.528 5.032Z" fill="#1CDE60"/>
<path d="M11.1242 23.496C10.7189 23.24 10.5162 22.8347 10.5162 22.28C10.5162 21.7253 10.9216 20.8827 11.7322 19.752C11.9669 19.3893 12.3402 19.208 12.8522 19.208C13.3856 19.208 14.1002 19.4747 14.9962 20.008C15.8922 20.52 16.7029 20.776 17.4282 20.776C18.7296 20.776 19.3802 20.52 19.3802 20.008C19.3802 19.6027 18.6656 19.304 17.2362 19.112C15.8922 18.92 14.5589 18.4187 13.2362 17.608C12.6176 17.224 12.1056 16.6267 11.7002 15.816C11.2949 14.984 11.0922 14.0027 11.0922 12.872C11.0922 9.50133 13.4069 7.816 18.0363 7.816C19.5509 7.816 21.1083 8.17867 22.7083 8.904C23.4549 9.24533 23.8282 9.672 23.8282 10.184C23.8282 10.696 23.5936 11.3253 23.1243 12.072C22.6549 12.8187 22.1749 13.192 21.6842 13.192C21.4282 13.192 20.9483 13.032 20.2443 12.712C19.5616 12.392 18.8149 12.232 18.0042 12.232C16.7456 12.232 16.1162 12.4667 16.1162 12.936C16.1162 13.576 16.8416 13.992 18.2922 14.184C19.7002 14.3333 21.0656 14.7387 22.3883 15.4C23.0069 15.6987 23.5189 16.2213 23.9243 16.968C24.3509 17.6933 24.5642 18.6107 24.5642 19.72C24.5642 20.8293 24.3509 21.7787 23.9243 22.568C23.5189 23.336 22.9429 23.912 22.1962 24.296C20.8309 24.9573 19.1136 25.288 17.0443 25.288C14.9962 25.288 13.0229 24.6907 11.1242 23.496ZM29.2125 29.576V10.888C29.2125 10.3973 29.2232 10.0347 29.2445 9.8C29.2872 9.56533 29.3832 9.29867 29.5325 9C29.8312 8.424 30.5458 8.136 31.6765 8.136C32.8072 8.136 33.5645 8.28533 33.9485 8.584C34.3538 8.86133 34.5885 9.27733 34.6525 9.832C35.4632 8.72267 36.7325 8.168 38.4605 8.168C40.2098 8.168 41.8632 8.98933 43.4205 10.632C44.9778 12.2747 45.7565 14.184 45.7565 16.36C45.7565 18.536 44.9778 20.4453 43.4205 22.088C41.8845 23.7307 40.2418 24.552 38.4925 24.552C36.7432 24.552 35.4738 24.0613 34.6845 23.08V29.544C34.6845 30.0347 34.6632 30.3973 34.6205 30.632C34.5992 30.8667 34.5032 31.1333 34.3325 31.432C34.1832 31.752 33.9165 31.976 33.5325 32.104C33.1485 32.232 32.6258 32.296 31.9645 32.296C31.3032 32.296 30.7698 32.232 30.3645 32.104C29.9805 31.976 29.7032 31.7627 29.5325 31.464C29.3832 31.1653 29.2872 30.8987 29.2445 30.664C29.2232 30.4293 29.2125 30.0667 29.2125 29.576ZM35.5485 14.504C35.0578 15.08 34.8125 15.7093 34.8125 16.392C34.8125 17.0747 35.0578 17.704 35.5485 18.28C36.0605 18.8347 36.7005 19.112 37.4685 19.112C38.2578 19.112 38.9192 18.8347 39.4525 18.28C40.0072 17.7253 40.2845 17.096 40.2845 16.392C40.2845 15.688 40.0285 15.0587 39.5165 14.504C39.0045 13.928 38.3325 13.64 37.5005 13.64C36.6898 13.64 36.0392 13.928 35.5485 14.504ZM66.6535 14.568C66.6535 15.8693 66.3228 16.84 65.6615 17.48C65.0215 18.0987 64.3068 18.408 63.5175 18.408H55.9335C55.9335 19.0053 56.2855 19.5067 56.9895 19.912C57.6935 20.3173 58.3975 20.52 59.1015 20.52C60.3388 20.52 61.3095 20.392 62.0135 20.136L62.3655 20.008C62.8775 19.7733 63.3042 19.656 63.6455 19.656C64.3282 19.656 64.9148 20.136 65.4055 21.096C65.6828 21.672 65.8215 22.1627 65.8215 22.568C65.8215 24.4667 63.5495 25.416 59.0055 25.416C57.4268 25.416 56.0188 25.1493 54.7815 24.616C53.5655 24.0613 52.6162 23.336 51.9335 22.44C50.5895 20.712 49.9175 18.7813 49.9175 16.648C49.9175 13.96 50.7815 11.816 52.5095 10.216C54.2588 8.59467 56.4348 7.784 59.0375 7.784C62.0028 7.784 64.1788 8.82933 65.5655 10.92C66.2908 12.0293 66.6535 13.2453 66.6535 14.568ZM59.9015 15.496C60.7122 15.496 61.1175 15.1547 61.1175 14.472C61.1175 13.9813 60.9255 13.5867 60.5415 13.288C60.1788 12.9893 59.6455 12.84 58.9415 12.84C58.2588 12.84 57.5762 13.128 56.8935 13.704C56.2108 14.2587 55.8695 14.856 55.8695 15.496H59.9015ZM82.2452 9.928C82.3732 8.73333 83.2159 8.136 84.7732 8.136C85.6052 8.136 86.2239 8.2 86.6292 8.328C87.0346 8.456 87.3119 8.68 87.4612 9C87.6319 9.32 87.7279 9.608 87.7492 9.864C87.7919 10.0987 87.8132 10.4613 87.8132 10.952V22.152C87.8132 22.6427 87.7919 23.016 87.7492 23.272C87.7279 23.5067 87.6426 23.784 87.4932 24.104C87.1946 24.6587 86.4586 24.936 85.2852 24.936C84.1332 24.936 83.3546 24.7973 82.9492 24.52C82.5652 24.2213 82.3412 23.7947 82.2772 23.24C81.4879 24.3707 80.1652 24.936 78.3092 24.936C76.4746 24.936 74.7679 24.0933 73.1892 22.408C71.6106 20.7227 70.8212 18.7707 70.8212 16.552C70.8212 14.312 71.6106 12.36 73.1892 10.696C74.7892 9.01067 76.5386 8.168 78.4372 8.168C79.1626 8.168 79.8239 8.296 80.4212 8.552C81.0186 8.808 81.4346 9.05333 81.6692 9.288C81.9039 9.50133 82.0959 9.71467 82.2452 9.928ZM76.4212 16.584C76.4212 17.288 76.6986 17.928 77.2532 18.504C77.8079 19.0587 78.4799 19.336 79.2692 19.336C80.0586 19.336 80.7092 19.048 81.2212 18.472C81.7546 17.896 82.0212 17.2667 82.0212 16.584C82.0212 15.88 81.7652 15.2293 81.2532 14.632C80.7626 14.0347 80.0906 13.736 79.2372 13.736C78.4052 13.736 77.7226 14.0347 77.1892 14.632C76.6772 15.2293 76.4212 15.88 76.4212 16.584ZM102.844 16.552L107.1 20.072C107.633 20.52 107.964 20.8613 108.092 21.096C108.241 21.3307 108.316 21.5547 108.316 21.768C108.316 22.28 107.985 22.9733 107.324 23.848C106.598 24.744 105.958 25.192 105.404 25.192C104.934 25.192 104.284 24.8827 103.452 24.264L103.132 24.04C102.641 23.6347 101.884 22.9307 100.86 21.928C99.8358 20.904 99.0571 20.1787 98.5238 19.752V22.216C98.5238 22.7067 98.5024 23.08 98.4598 23.336C98.4384 23.5707 98.3424 23.848 98.1718 24.168C97.8944 24.7227 97.0731 25 95.7078 25C94.3638 25 93.5424 24.712 93.2438 24.136C93.0944 23.816 92.9984 23.5387 92.9558 23.304C92.9344 23.048 92.9238 22.6747 92.9238 22.184V3.016C92.9238 2.52533 92.9344 2.16267 92.9558 1.928C92.9984 1.672 93.0944 1.384 93.2438 1.064C93.5424 0.487999 94.3744 0.199999 95.7398 0.199999C96.7638 0.199999 97.4891 0.381332 97.9158 0.743999C98.2784 1.04267 98.4704 1.512 98.4918 2.152C98.5131 2.344 98.5238 2.64267 98.5238 3.048V13.192C98.9078 12.872 99.4838 12.328 100.252 11.56C101.041 10.792 101.628 10.248 102.012 9.928L102.396 9.672C103.142 9.096 103.782 8.808 104.316 8.808C104.849 8.808 105.457 9.24533 106.14 10.12C106.844 10.9733 107.196 11.6453 107.196 12.136C107.196 12.6267 106.801 13.2027 106.012 13.864L102.844 16.552Z" fill="#222222" fill-opacity="0.95"/>
</svg>
